<?xml version="1.0" standalone="no"?><!DOCTYPE svg PUBLIC "-//W3C//DTD SVG 1.1//EN" "http://www.w3.org/Graphics/SVG/1.1/DTD/svg11.dtd"><svg t="1712953846804" class="icon" viewBox="0 0 1024 1024" version="1.1" xmlns="http://www.w3.org/2000/svg" p-id="7917" xmlns:xlink="http://www.w3.org/1999/xlink" width="200" height="200"><path d="M865.01376 752.80384c75.9808-83.49696 104.59136-176.55808 98.6112-294.56384-6.8608-136.04864-73.37984-246.784-171.88864-317.17376-78.1312-56.05376-174.40768-82.78016-274.04288-82.78016-42.51648 0-87.51104 7.00416-129.39264 16.9984-91.25888 21.95456-231.424 103.46496-288.78848 224.29696-58.51136 123.20768-60.14976 268.02176 18.2272 385.35168a640.6144 640.6144 0 0 0 40.01792 53.80096c6.144-22.58944 17.8176-43.6224 34.38592-61.05088l7.72096-8.13056a41.94304 41.94304 0 0 0 10.89536-36.20864l-7.90528-47.9232-4.9152 0.86016a40.96 40.96 0 1 1-14.2336-80.6912l161.34144-28.42624a40.96 40.96 0 1 1 14.2336 80.67072l-35.9424 6.3488 8.3968 47.7184a164.82304 164.82304 0 0 1-42.8032 142.31552l-7.72096 8.11008a20.2752 20.2752 0 0 0-5.28384 17.408l3.1744 18.5344c2.3552 13.66016 2.3552 30.28992 2.21184 45.4656 43.95008 24.73984 93.696 41.82016 151.2448 51.03616l10.50624 1.76128-7.00416 57.79456-10.01472-1.6384C271.27808 927.8464 138.87488 837.48864 62.8736 704.77824c-76.3904-133.05856-83.51744-286.72-19.49696-421.1712C106.00448 152.28928 229.02784 55.05024 381.17376 16.95744A563.54816 563.54816 0 0 1 517.81632 0c107.88864 0 210.5344 31.08864 296.91904 89.74336 125.1328 85.01248 201.15456 218.58304 208.65024 366.63296 7.51616 147.92704-54.74304 287.47776-170.63936 383.22176-73.25696 60.416-167.64928 101.10976-265.66656 114.60608-7.12704 0.73728-27.50464 4.97664-34.75456 14.848-6.144 8.35584-8.3968 29.83936-7.8848 41.69728l0.38912 10.48576-47.14496 1.2288-0.24576-10.3424c-0.36864-9.99424 3.62496-61.93152 18.88256-82.75968 18.00192-24.4736 58.368-32.4608 65.49504-33.34144 53.32992-7.29088 106.25024-22.4256 154.13248-45.62944a321.536 321.536 0 0 1 4.64896-52.1216l3.1744-18.5344a20.2752 20.2752 0 0 0-5.28384-17.408l-7.72096-8.11008a164.82304 164.82304 0 0 1-42.8032-142.29504l8.27392-46.77632-41.49248-7.31136a40.96 40.96 0 0 1 14.21312-80.6912l161.36192 28.4672a40.96 40.96 0 0 1-13.06624 80.85504l-8.31488 46.8992c-2.31424 13.1072 1.72032 26.54208 10.89536 36.18816l7.72096 8.13056a143.13472 143.13472 0 0 1 37.45792 75.12064z m-273.05984-37.0688l-0.6144 0.34816c-13.80352 7.55712-26.03008 10.9568-43.17184 10.9568-14.49984 0-28.50816-6.02112-39.66976-16.6912-29.696 23.32672-73.6256 20.13184-100.18816-8.56064-12.9024-16.46592-19.18976-32.11264-19.18976-50.8928 0-15.1552 12.6976-25.76384 27.2384-25.76384 14.58176 0 27.2384 10.60864 27.2384 25.76384 0 6.67648 1.98656 12.77952 6.5536 17.2032 5.0176 6.88128 12.86144 7.80288 19.94752 1.47456 5.77536-3.93216 8.31488-8.56064 8.31488-14.80704v-3.87072c0-31.10912 56.60672-31.10912 56.60672 0 0 6.20544 1.80224 11.42784 5.7344 16.24064 8.66304 9.216 17.85856 8.92928 24.65792-0.96256 2.78528-3.80928 4.4032-9.35936 4.4032-15.27808 0-12.06272 8.86784-21.9136 20.02944-25.31328 10.3424-3.13344 22.79424 1.86368 29.73696 10.69056 3.97312 3.8912 4.7104 7.2704 4.75136 14.15168 2.3552 27.50464-8.54016 50.09408-32.37888 65.31072z" fill="#bfbfbf" p-id="7918"></path></svg>