<?xml version="1.0" encoding="utf-8"?>
<!-- Generator: Adobe Illustrator 24.0.1, SVG Export Plug-In . SVG Version: 6.00 Build 0)  -->
<svg version="1.1" id="图层_1" xmlns="http://www.w3.org/2000/svg" xmlns:xlink="http://www.w3.org/1999/xlink" x="0px" y="0px"
	 viewBox="0 0 24 24" style="enable-background:new 0 0 24 24;" xml:space="preserve">
<style type="text/css">
	.st0{fill:#FFFFFF;}
</style>
<g>
	<circle cx="12" cy="12" r="12"/>
	<path class="st0" d="M19.5,10.4c0.4-1.2,0.3-2.5-0.4-3.6c-1-1.7-2.9-2.5-4.8-2.1c-1.6-1.8-4.5-2-6.3-0.3c-0.6,0.5-1,1.2-1.3,1.9
		c-1.2,0.3-2.3,1-2.9,2.1c-1,1.7-0.8,3.8,0.5,5.2c-0.4,1.2-0.3,2.5,0.4,3.6c1,1.7,2.9,2.5,4.8,2.1c0.8,0.9,2,1.5,3.3,1.5
		c1.9,0,3.6-1.2,4.2-3.1c1.2-0.3,2.3-1,2.9-2.1C21,13.9,20.8,11.8,19.5,10.4z M12.9,19.6c-0.8,0-1.5-0.3-2.1-0.8l0.1-0.1l3.5-2
		c0.2-0.1,0.3-0.3,0.3-0.5v-4.9l1.5,0.9c0,0,0,0,0,0v4.1C16.2,18.2,14.7,19.6,12.9,19.6z M5.8,16.6c-0.4-0.7-0.5-1.5-0.4-2.2
		l0.1,0.1l3.5,2c0.2,0.1,0.4,0.1,0.6,0l4.3-2.5v1.7c0,0,0,0,0,0l-3.5,2C8.8,18.7,6.8,18.2,5.8,16.6z M4.9,9c0.4-0.7,1-1.2,1.7-1.4
		v4.2c0,0.2,0.1,0.4,0.3,0.5l4.3,2.5l-1.5,0.9c0,0,0,0-0.1,0l-3.5-2C4.5,12.6,4,10.6,4.9,9L4.9,9z M17.1,11.8l-4.3-2.5l1.5-0.9
		c0,0,0,0,0.1,0l3.5,2c1.6,0.9,2.1,2.9,1.2,4.5c-0.4,0.7-1,1.2-1.7,1.4v-4.2C17.4,12.1,17.3,11.9,17.1,11.8z M18.6,9.6l-0.1-0.1
		l-3.5-2c-0.2-0.1-0.4-0.1-0.6,0L10.1,10V8.3c0,0,0,0,0,0l3.5-2c1.6-0.9,3.6-0.4,4.5,1.2C18.6,8,18.7,8.8,18.6,9.6L18.6,9.6z
		 M9.3,12.6l-1.5-0.9c0,0,0,0,0,0V7.7c0-1.8,1.5-3.3,3.3-3.3c0.8,0,1.5,0.3,2.1,0.8l-0.1,0.1l-3.5,2C9.4,7.3,9.3,7.5,9.3,7.7
		L9.3,12.6z M10.1,10.9L12,9.8l1.9,1.1v2.2L12,14.2l-1.9-1.1L10.1,10.9z"/>
</g>
</svg>
