<?xml version="1.0" standalone="no"?><!DOCTYPE svg PUBLIC "-//W3C//DTD SVG 1.1//EN" "http://www.w3.org/Graphics/SVG/1.1/DTD/svg11.dtd"><svg t="1714395115195" class="icon" viewBox="0 0 1024 1024" version="1.1" xmlns="http://www.w3.org/2000/svg" p-id="5121" xmlns:xlink="http://www.w3.org/1999/xlink" width="200" height="200"><path d="M512 697.13c-102.08 0-185.13-83.05-185.13-185.13S409.92 326.87 512 326.87 697.13 409.92 697.13 512 614.08 697.13 512 697.13z m0-332.28c-81.14 0-147.15 66.01-147.15 147.15S430.86 659.15 512 659.15 659.15 593.14 659.15 512 593.14 364.85 512 364.85zM512 281.78c-10.49 0-18.99-8.5-18.99-18.99v-106.8c0-10.49 8.5-18.99 18.99-18.99 10.49 0 18.99 8.5 18.99 18.99v106.8c0 10.49-8.5 18.99-18.99 18.99zM335.78 354.77c-4.86 0-9.72-1.85-13.43-5.56l-75.52-75.52c-7.42-7.42-7.42-19.44 0-26.85 7.42-7.42 19.44-7.42 26.85 0l75.52 75.52c7.42 7.42 7.42 19.44 0 26.85-3.7 3.71-8.56 5.56-13.42 5.56zM262.79 530.99h-106.8c-10.49 0-18.99-8.5-18.99-18.99 0-10.49 8.5-18.99 18.99-18.99h106.8c10.49 0 18.99 8.5 18.99 18.99 0 10.49-8.5 18.99-18.99 18.99zM260.26 782.73c-4.86 0-9.72-1.85-13.43-5.56-7.42-7.42-7.42-19.44 0-26.85l75.52-75.52c7.42-7.42 19.44-7.42 26.85 0 7.42 7.42 7.42 19.44 0 26.85l-75.52 75.52a18.93 18.93 0 0 1-13.42 5.56zM512 887c-10.49 0-18.99-8.5-18.99-18.99v-106.8c0-10.49 8.5-18.99 18.99-18.99 10.49 0 18.99 8.5 18.99 18.99v106.8c0 10.49-8.5 18.99-18.99 18.99zM763.74 782.73c-4.86 0-9.72-1.85-13.43-5.56l-75.52-75.52c-7.41-7.42-7.41-19.44 0-26.85 7.42-7.42 19.44-7.42 26.85 0l75.52 75.52c7.42 7.42 7.42 19.44 0 26.85a18.93 18.93 0 0 1-13.42 5.56zM868.01 530.99h-106.8c-10.49 0-18.99-8.5-18.99-18.99 0-10.49 8.5-18.99 18.99-18.99h106.8c10.49 0 18.99 8.5 18.99 18.99 0 10.49-8.5 18.99-18.99 18.99zM688.22 354.77c-4.86 0-9.72-1.85-13.43-5.56-7.42-7.42-7.41-19.44 0-26.85l75.52-75.52c7.42-7.41 19.44-7.42 26.85 0 7.42 7.42 7.41 19.44 0 26.85l-75.52 75.52c-3.7 3.71-8.56 5.56-13.42 5.56z" p-id="5122"></path></svg>